<svg xmlns="http://www.w3.org/2000/svg" viewBox="0 0 221.7 78.8"><path fill="#FFF" d="M31.8 11.3h155.5v55.1H31.8z"/><g fill="#55241A"><path d="M137.8 34.4c-5 0-5.3 4.1-5.3 8.2s.3 8.3 5.3 8.3 5.2-4.4 5.2-8.3c0-3.8-.3-8.2-5.2-8.2zm22.7 13.5c0 1.8 1.4 3.3 5 3.3 4.4 0 6-.5 6-4.6v-1.9h-6.4c-3.1 0-4.6 1.2-4.6 3.2z"/><path d="M196.7 33.5C192.6 19.6 179.2 12 167.9 12H15.8c2.8 10 9.1 33 9.1 33.1 3.9 13.4 16.8 21.4 28.3 21.4h152.6c-1-3.8-9.1-32.8-9.1-33zM60.9 23.7H57c-1.7 0-2.3.6-2.3 2.2v3.5h6.2v4.1h-6.2v22.4h-5.3V33.5h-4.9l-1.2-4.1h6.1v-3.5c0-5 3.1-7.2 7.2-7.2h4.3v5zm27.8 32.2h-5.3v-2.8h-.1c-1.7 2.1-4.1 3.1-6.8 3.1-4.2 0-8.9-3.2-8.9-9.2V29.4h5.3v15.8c0 3.6 2.2 5.7 5.3 5.7 3 0 5.2-2.1 5.2-5.7V29.4h5.3v26.5zm30.6 0H114V40.1c0-3.6-2.2-5.7-5.2-5.7s-5.3 2.1-5.3 5.7v15.8h-5.3V29.4h5.3v2.8h.1c1.7-2.1 4.1-3.1 6.9-3.1 4.1 0 8.8 3.2 8.8 9.2v17.6zm29 0H143v-2.8c-1.7 1.8-4.1 3.1-6.8 3.1-3.2 0-5.6-1.5-7.1-3.4s-1.9-3.6-1.9-10.1.4-8.2 1.9-10.1c1.5-2 3.9-3.5 7.1-3.5 2.7 0 4.9 1.3 6.8 3.1V18.7h5.3v37.2zm28.6 0h-5.3v-2.4h-.1c-1.1 1.8-2.9 2.7-6.5 2.7-5.9 0-9.4-3.5-9.4-8.1 0-4.2 2.9-7.8 8.6-7.8h7.4v-2.8c0-2.5-1.6-3.4-5.4-3.4-2.8 0-4.1.5-5 2l-4.2-3.2c2-2.8 5-3.9 8.9-3.9 6.5 0 11 2.2 11 8.7v18.2z"/></g><path fill="#83CFEE" d="M52.9 78.5l.1.3h168.8l-.1-.3-13.4-48.3C202.7 11.2 184.6 0 167.9 0H0l13.4 48.3v.1c5.5 19.2 23.7 29.9 39.5 30.1zm115-66.5c11.3 0 24.8 7.6 28.8 21.5 0 .1 8.1 29.2 9.1 33H53.2c-11.5 0-24.4-8-28.3-21.4 0-.1-6.4-23-9.1-33.1h152.1z"/></svg>
